<svg viewBox="0 0 1246 1024" fill="none" xmlns="http://www.w3.org/2000/svg">
<g opacity="0.5" filter="url(#filter0_d_18_192)">
<ellipse cx="949.721" cy="371.957" rx="87.1586" ry="86.9548" transform="rotate(-68 949.721 371.957)" fill="url(#paint0_linear_18_192)"/>
<ellipse cx="295.671" cy="650.488" rx="87.1586" ry="86.9548" transform="rotate(-68 295.671 650.488)" fill="url(#paint1_linear_18_192)"/>
<ellipse cx="485.068" cy="185.932" rx="87.1586" ry="86.9548" transform="rotate(-68 485.068 185.932)" fill="url(#paint2_linear_18_192)"/>
<ellipse cx="761.197" cy="838.572" rx="87.1586" ry="86.9548" transform="rotate(-68 761.197 838.572)" fill="url(#paint3_linear_18_192)"/>
<circle cx="87.0567" cy="87.0567" r="87.0567" transform="matrix(0.920144 -0.391579 0.389882 0.920865 180.358 332.154)" fill="url(#paint4_linear_18_192)"/>
<circle cx="87.0568" cy="87.0568" r="87.0568" transform="matrix(0.920047 -0.391808 0.389654 0.920961 642.001 137.281)" fill="url(#paint5_linear_18_192)"/>
<circle cx="87.0568" cy="87.0568" r="87.0568" transform="matrix(0.920047 -0.391808 0.389654 0.920961 376.226 795.098)" fill="url(#paint6_linear_18_192)"/>
<circle cx="87.0568" cy="87.0568" r="87.0568" transform="matrix(0.920047 -0.391808 0.389654 0.920961 838.709 598.145)" fill="url(#paint7_linear_18_192)"/>
<ellipse cx="399.086" cy="606.831" rx="59.6331" ry="59.4937" transform="rotate(-68 399.086 606.831)" fill="url(#paint8_linear_18_192)"/>
<ellipse cx="528.669" cy="288.987" rx="59.6331" ry="59.4937" transform="rotate(-68 528.669 288.987)" fill="url(#paint9_linear_18_192)"/>
<ellipse cx="717.594" cy="735.517" rx="59.6331" ry="59.4937" transform="rotate(-68 717.594 735.517)" fill="url(#paint10_linear_18_192)"/>
<circle cx="59.5634" cy="59.5634" r="59.5634" transform="matrix(0.920144 -0.391579 0.389882 0.920865 320.189 389.032)" fill="url(#paint11_linear_18_192)"/>
<ellipse cx="59.5635" cy="59.5635" rx="59.5635" ry="59.5635" transform="matrix(0.920047 -0.391808 0.389654 0.920961 636.042 255.701)" fill="url(#paint12_linear_18_192)"/>
<ellipse cx="59.5635" cy="59.5635" rx="59.5635" ry="59.5635" transform="matrix(0.920047 -0.391808 0.389654 0.920961 454.201 705.774)" fill="url(#paint13_linear_18_192)"/>
<ellipse cx="59.5635" cy="59.5635" rx="59.5635" ry="59.5635" transform="matrix(0.920047 -0.391808 0.389654 0.920961 770.627 571.02)" fill="url(#paint14_linear_18_192)"/>
<ellipse cx="846.579" cy="416.265" rx="59.6331" ry="59.4937" transform="rotate(-68 846.579 416.265)" fill="url(#paint15_linear_18_192)"/>
<ellipse cx="465.888" cy="578.633" rx="41.8525" ry="41.7547" transform="rotate(-68 465.888 578.633)" fill="url(#paint16_linear_18_192)"/>
<ellipse cx="556.834" cy="355.56" rx="41.8525" ry="41.7547" transform="rotate(-68 556.834 355.56)" fill="url(#paint17_linear_18_192)"/>
<ellipse cx="689.427" cy="668.949" rx="41.8525" ry="41.7547" transform="rotate(-68 689.427 668.949)" fill="url(#paint18_linear_18_192)"/>
<circle cx="41.8036" cy="41.8036" r="41.8036" transform="matrix(0.920144 -0.391579 0.389882 0.920865 410.516 425.773)" fill="url(#paint19_linear_18_192)"/>
<circle cx="41.8036" cy="41.8036" r="41.8036" transform="matrix(0.920047 -0.391808 0.389654 0.920961 632.191 332.198)" fill="url(#paint20_linear_18_192)"/>
<circle cx="41.8036" cy="41.8036" r="41.8036" transform="matrix(0.920047 -0.391808 0.389654 0.920961 504.569 648.073)" fill="url(#paint21_linear_18_192)"/>
<circle cx="41.8036" cy="41.8036" r="41.8036" transform="matrix(0.920047 -0.391808 0.389654 0.920961 726.649 553.498)" fill="url(#paint22_linear_18_192)"/>
<ellipse cx="779.954" cy="444.887" rx="41.8525" ry="41.7547" transform="rotate(-68 779.954 444.887)" fill="url(#paint23_linear_18_192)"/>
</g>
<defs>
<filter id="filter0_d_18_192" x="203.383" y="96.1948" width="840.35" height="840.122" filterUnits="userSpaceOnUse" color-interpolation-filters="sRGB">
<feFlood flood-opacity="0" result="BackgroundImageFix"/>
<feColorMatrix in="SourceAlpha" type="matrix" values="0 0 0 0 0 0 0 0 0 0 0 0 0 0 0 0 0 0 127 0" result="hardAlpha"/>
<feOffset dy="4"/>
<feGaussianBlur stdDeviation="2"/>
<feComposite in2="hardAlpha" operator="out"/>
<feColorMatrix type="matrix" values="0 0 0 0 0 0 0 0 0 0 0 0 0 0 0 0 0 0 0.25 0"/>
<feBlend mode="normal" in2="BackgroundImageFix" result="effect1_dropShadow_18_192"/>
<feBlend mode="normal" in="SourceGraphic" in2="effect1_dropShadow_18_192" result="shape"/>
</filter>
<linearGradient id="paint0_linear_18_192" x1="949.721" y1="285.002" x2="949.721" y2="458.912" gradientUnits="userSpaceOnUse">
<stop stop-color="white" stop-opacity="0.5"/>
<stop offset="1" stop-color="#6AA6FF" stop-opacity="0.42"/>
</linearGradient>
<linearGradient id="paint1_linear_18_192" x1="295.671" y1="563.533" x2="295.671" y2="737.442" gradientUnits="userSpaceOnUse">
<stop stop-color="white" stop-opacity="0.5"/>
<stop offset="1" stop-color="#6AA6FF" stop-opacity="0.42"/>
</linearGradient>
<linearGradient id="paint2_linear_18_192" x1="485.068" y1="98.9769" x2="485.068" y2="272.887" gradientUnits="userSpaceOnUse">
<stop stop-color="white" stop-opacity="0.5"/>
<stop offset="1" stop-color="#6AA6FF" stop-opacity="0.42"/>
</linearGradient>
<linearGradient id="paint3_linear_18_192" x1="761.196" y1="751.617" x2="761.196" y2="925.527" gradientUnits="userSpaceOnUse">
<stop stop-color="white" stop-opacity="0.5"/>
<stop offset="1" stop-color="#6AA6FF" stop-opacity="0.42"/>
</linearGradient>
<linearGradient id="paint4_linear_18_192" x1="87.0567" y1="0" x2="87.0567" y2="174.113" gradientUnits="userSpaceOnUse">
<stop stop-color="white" stop-opacity="0.5"/>
<stop offset="1" stop-color="#6AA6FF" stop-opacity="0.42"/>
</linearGradient>
<linearGradient id="paint5_linear_18_192" x1="87.0568" y1="0" x2="87.0568" y2="174.114" gradientUnits="userSpaceOnUse">
<stop stop-color="white" stop-opacity="0.5"/>
<stop offset="1" stop-color="#6AA6FF" stop-opacity="0.42"/>
</linearGradient>
<linearGradient id="paint6_linear_18_192" x1="87.0568" y1="0" x2="87.0568" y2="174.114" gradientUnits="userSpaceOnUse">
<stop stop-color="white" stop-opacity="0.5"/>
<stop offset="1" stop-color="#6AA6FF" stop-opacity="0.42"/>
</linearGradient>
<linearGradient id="paint7_linear_18_192" x1="87.0568" y1="0" x2="87.0568" y2="174.114" gradientUnits="userSpaceOnUse">
<stop stop-color="white" stop-opacity="0.5"/>
<stop offset="1" stop-color="#6AA6FF" stop-opacity="0.42"/>
</linearGradient>
<linearGradient id="paint8_linear_18_192" x1="399.086" y1="547.338" x2="399.086" y2="666.325" gradientUnits="userSpaceOnUse">
<stop stop-color="white" stop-opacity="0.5"/>
<stop offset="1" stop-color="#6AA6FF" stop-opacity="0.42"/>
</linearGradient>
<linearGradient id="paint9_linear_18_192" x1="528.669" y1="229.494" x2="528.669" y2="348.481" gradientUnits="userSpaceOnUse">
<stop stop-color="white" stop-opacity="0.5"/>
<stop offset="1" stop-color="#6AA6FF" stop-opacity="0.42"/>
</linearGradient>
<linearGradient id="paint10_linear_18_192" x1="717.594" y1="676.023" x2="717.594" y2="795.011" gradientUnits="userSpaceOnUse">
<stop stop-color="white" stop-opacity="0.5"/>
<stop offset="1" stop-color="#6AA6FF" stop-opacity="0.42"/>
</linearGradient>
<linearGradient id="paint11_linear_18_192" x1="59.5634" y1="0" x2="59.5634" y2="119.127" gradientUnits="userSpaceOnUse">
<stop stop-color="white" stop-opacity="0.5"/>
<stop offset="1" stop-color="#6AA6FF" stop-opacity="0.42"/>
</linearGradient>
<linearGradient id="paint12_linear_18_192" x1="59.5635" y1="0" x2="59.5635" y2="119.127" gradientUnits="userSpaceOnUse">
<stop stop-color="white" stop-opacity="0.5"/>
<stop offset="1" stop-color="#6AA6FF" stop-opacity="0.42"/>
</linearGradient>
<linearGradient id="paint13_linear_18_192" x1="59.5635" y1="0" x2="59.5635" y2="119.127" gradientUnits="userSpaceOnUse">
<stop stop-color="white" stop-opacity="0.5"/>
<stop offset="1" stop-color="#6AA6FF" stop-opacity="0.42"/>
</linearGradient>
<linearGradient id="paint14_linear_18_192" x1="59.5635" y1="0" x2="59.5635" y2="119.127" gradientUnits="userSpaceOnUse">
<stop stop-color="white" stop-opacity="0.5"/>
<stop offset="1" stop-color="#6AA6FF" stop-opacity="0.42"/>
</linearGradient>
<linearGradient id="paint15_linear_18_192" x1="846.579" y1="356.771" x2="846.579" y2="475.758" gradientUnits="userSpaceOnUse">
<stop stop-color="white" stop-opacity="0.5"/>
<stop offset="1" stop-color="#6AA6FF" stop-opacity="0.42"/>
</linearGradient>
<linearGradient id="paint16_linear_18_192" x1="465.888" y1="536.878" x2="465.888" y2="620.388" gradientUnits="userSpaceOnUse">
<stop stop-color="white" stop-opacity="0.5"/>
<stop offset="1" stop-color="#6AA6FF" stop-opacity="0.42"/>
</linearGradient>
<linearGradient id="paint17_linear_18_192" x1="556.834" y1="313.805" x2="556.834" y2="397.314" gradientUnits="userSpaceOnUse">
<stop stop-color="white" stop-opacity="0.5"/>
<stop offset="1" stop-color="#6AA6FF" stop-opacity="0.42"/>
</linearGradient>
<linearGradient id="paint18_linear_18_192" x1="689.427" y1="627.194" x2="689.427" y2="710.704" gradientUnits="userSpaceOnUse">
<stop stop-color="white" stop-opacity="0.5"/>
<stop offset="1" stop-color="#6AA6FF" stop-opacity="0.42"/>
</linearGradient>
<linearGradient id="paint19_linear_18_192" x1="41.8036" y1="0" x2="41.8036" y2="83.6072" gradientUnits="userSpaceOnUse">
<stop stop-color="white" stop-opacity="0.5"/>
<stop offset="1" stop-color="#6AA6FF" stop-opacity="0.42"/>
</linearGradient>
<linearGradient id="paint20_linear_18_192" x1="41.8036" y1="0" x2="41.8036" y2="83.6072" gradientUnits="userSpaceOnUse">
<stop stop-color="white" stop-opacity="0.5"/>
<stop offset="1" stop-color="#6AA6FF" stop-opacity="0.42"/>
</linearGradient>
<linearGradient id="paint21_linear_18_192" x1="41.8036" y1="0" x2="41.8036" y2="83.6072" gradientUnits="userSpaceOnUse">
<stop stop-color="white" stop-opacity="0.5"/>
<stop offset="1" stop-color="#6AA6FF" stop-opacity="0.42"/>
</linearGradient>
<linearGradient id="paint22_linear_18_192" x1="41.8036" y1="0" x2="41.8036" y2="83.6072" gradientUnits="userSpaceOnUse">
<stop stop-color="white" stop-opacity="0.5"/>
<stop offset="1" stop-color="#6AA6FF" stop-opacity="0.42"/>
</linearGradient>
<linearGradient id="paint23_linear_18_192" x1="779.954" y1="403.132" x2="779.954" y2="486.641" gradientUnits="userSpaceOnUse">
<stop stop-color="white" stop-opacity="0.5"/>
<stop offset="1" stop-color="#6AA6FF" stop-opacity="0.42"/>
</linearGradient>
</defs>
</svg>
